<?xml version="1.0" encoding="iso-8859-1"?>
<!-- Uploaded to: SVG Repo, www.svgrepo.com, Generator: SVG Repo Mixer Tools -->
<svg height="24px" width="24px" version="1.1" id="Capa_1"
  xmlns="http://www.w3.org/2000/svg"
  xmlns:xlink="http://www.w3.org/1999/xlink" viewBox="0 0 465 465" xml:space="preserve">
  <g>
    <path style="fill:#0C80E4;" d="M256.529,255.763c-7.273,0-13.775,4.4-16.529,11.052v128.723
		c36.646-3.766,65.326-34.817,65.326-72.441v-77.476c-7.422,6.317-17.027,10.142-27.514,10.142H256.529z"/>
    <path style="fill:#0C80E4;" d="M277.812,185.735h-7.881c-4.142,0-7.5-3.358-7.5-7.5c0-16.504-13.427-29.931-29.931-29.931
		c-13.915,0-25.642,9.545-28.979,22.431h36.41c4.142,0,7.5,3.358,7.5,7.5s-3.358,7.5-7.5,7.5h-44.862h-7.881
		c-15.171,0-27.514,12.343-27.514,27.514c0,15.171,12.343,27.514,27.514,27.514h21.283c9.309,0,17.938,3.917,24.029,10.426
		c6.092-6.508,14.72-10.426,24.029-10.426h21.283c15.171,0,27.514-12.343,27.514-27.514
		C305.326,198.078,292.983,185.735,277.812,185.735z"/>
    <path style="fill:#00E4C5;" d="M208.471,255.763h-21.283c-10.487,0-20.092-3.825-27.514-10.142v77.475
		c0,37.624,28.68,68.675,65.326,72.441V266.815C222.245,260.163,215.744,255.763,208.471,255.763z"/>
    <path style="fill:#E43017;" d="M232.5,102.762c24.196,0,43.881-19.685,43.881-43.881C276.381,34.685,256.696,15,232.5,15
		s-43.881,19.685-43.881,43.881C188.619,83.077,208.304,102.762,232.5,102.762z"/>
    <path style="fill:#FF9926;" d="M232.5,441.465c-2.353,0-4.268,1.915-4.268,4.268S230.147,450,232.5,450s4.268-1.915,4.268-4.268
		S234.853,441.465,232.5,441.465z"/>
    <path d="M232.5,117.762c32.467,0,58.881-26.414,58.881-58.881C291.381,26.414,264.967,0,232.5,0s-58.881,26.414-58.881,58.881
		C173.619,91.348,200.033,117.762,232.5,117.762z M232.5,15c24.196,0,43.881,19.685,43.881,43.881
		c0,24.196-19.685,43.881-43.881,43.881s-43.881-19.685-43.881-43.881C188.619,34.685,208.304,15,232.5,15z"/>
    <path d="M232.5,426.465c-10.624,0-19.268,8.644-19.268,19.268S221.876,465,232.5,465s19.268-8.644,19.268-19.268
		S243.124,426.465,232.5,426.465z M232.5,450c-2.353,0-4.268-1.915-4.268-4.268s1.915-4.268,4.268-4.268s4.268,1.915,4.268,4.268
		S234.853,450,232.5,450z"/>
    <path d="M355.136,220.749c4.142,0,7.5-3.358,7.5-7.5v-31.732c0-39.565-17.743-76.533-48.68-101.426
		c-3.227-2.597-7.949-2.085-10.545,1.142c-2.597,3.227-2.085,7.948,1.142,10.545c27.38,22.031,43.083,54.74,43.083,89.739v24.232
		l-27.986,0c-3.554-19.876-20.956-35.014-41.838-35.014h-1.007c-3.581-21.216-22.085-37.431-44.305-37.431
		c-22.219,0-40.724,16.214-44.305,37.431h-1.007c-20.882,0-38.283,15.138-41.838,35.014l-27.986,0v-24.232
		c0-35,15.703-67.708,43.083-89.738c3.227-2.597,3.738-7.318,1.142-10.545c-2.596-3.226-7.317-3.739-10.545-1.142
		c-30.937,24.892-48.679,61.86-48.679,101.425v31.732c0,4.142,3.358,7.5,7.5,7.5l34.81,0v58.675l-30.78-19.613
		c-2.309-1.471-5.236-1.568-7.637-0.25c-2.401,1.317-3.893,3.837-3.893,6.576v26.96c0,4.142,3.358,7.5,7.5,7.5s7.5-3.358,7.5-7.5
		v-13.288l27.31,17.402v18.386h-34.81c-4.142,0-7.5,3.358-7.5,7.5c0,54.853,34.746,104.12,86.459,122.596
		c0.834,0.298,1.686,0.439,2.523,0.439c3.08,0,5.968-1.912,7.063-4.979c1.394-3.901-0.639-8.193-4.54-9.586
		c-43.39-15.501-73.28-55.497-76.261-100.97h27.388c3.818,44.93,41.601,80.326,87.502,80.326c45.901,0,83.684-35.396,87.503-80.326
		h27.388c-2.981,45.474-32.871,85.469-76.261,100.97c-3.9,1.394-5.933,5.686-4.54,9.586c1.096,3.067,3.983,4.979,7.063,4.979
		c0.837,0,1.689-0.141,2.523-0.439c51.714-18.476,86.459-67.744,86.459-122.596c0-4.142-3.358-7.5-7.5-7.5h-34.81v-18.386
		l27.31-17.402v13.288c0,4.142,3.358,7.5,7.5,7.5s7.5-3.358,7.5-7.5v-26.96c0-2.738-1.492-5.259-3.893-6.576
		c-2.401-1.317-5.329-1.22-7.637,0.25l-30.779,19.613V220.75L355.136,220.749z M225,395.538
		c-36.646-3.766-65.326-34.817-65.326-72.441v-77.475c7.422,6.317,17.027,10.142,27.514,10.142h21.283
		c7.273,0,13.774,4.4,16.529,11.052V395.538z M305.326,323.097c0,37.624-28.68,68.675-65.326,72.441V266.815
		c2.755-6.652,9.257-11.052,16.529-11.052h21.283c10.487,0,20.093-3.825,27.514-10.142V323.097z M277.812,240.763h-21.283
		c-9.309,0-17.938,3.917-24.029,10.426c-6.091-6.508-14.72-10.426-24.029-10.426h-21.283c-15.171,0-27.514-12.343-27.514-27.514
		c0-15.171,12.343-27.514,27.514-27.514h7.881h44.862c4.142,0,7.5-3.358,7.5-7.5s-3.358-7.5-7.5-7.5h-36.41
		c3.337-12.886,15.064-22.431,28.979-22.431c16.504,0,29.931,13.427,29.931,29.931c0,4.142,3.358,7.5,7.5,7.5h7.881
		c15.171,0,27.514,12.343,27.514,27.514C305.326,228.42,292.983,240.763,277.812,240.763z"/>
  </g>
</svg>