<svg xmlns="http://www.w3.org/2000/svg" viewBox="0 0 256 256" fill="none" shape-rendering="auto" width="512" height="512"><desc>"Croodles - Doodle your face" by "vijay verma", licensed under "CC BY 4.0". / Remix of the original. - Created with dicebear.com</desc><metadata xmlns:dc="http://purl.org/dc/elements/1.1/" xmlns:cc="http://creativecommons.org/ns#" xmlns:rdf="http://www.w3.org/1999/02/22-rdf-syntax-ns#"><rdf:RDF><cc:Work><dc:title>Croodles - Doodle your face</dc:title><dc:creator><cc:Agent rdf:about="https://vijayverma.co/"><dc:title>vijay verma</dc:title></cc:Agent></dc:creator><dc:source>https://www.figma.com/community/file/966199982810283152</dc:source><cc:license rdf:resource="https://creativecommons.org/licenses/by/4.0/" /></cc:Work></rdf:RDF></metadata><mask id="viewboxMask"><rect width="256" height="256" rx="0" ry="0" x="0" y="0" fill="#fff" /></mask><g mask="url(#viewboxMask)"><rect fill="#9ca3af" width="256" height="256" x="0" y="0" /><path d="M175 107.8c.3.4.5.8.4 1.3 1.9 2.3 3.5 5 4.8 8 1.2-.4 2.5-.7 3.9-.6 1.7.2 3.3 1.1 4.4 3 2 3.5 3.4 8 1.8 14.6a7.9 7.9 0 0 1-2.7 4.6 6 6 0 0 1-2.4 1 54 54 0 0 1-1.6 15 55 55 0 0 1-46 38.4c-24 2.2-47.9-4.1-59.6-27a43 43 0 0 1-5.7-17.5c-1.4 0-2.9-.6-4.1-2a15.5 15.5 0 0 1-3-8.3c-.7-5.7.2-9.9 2-12.4 1-1.3 2.2-2.2 3.6-2.6 1.2-.4 2.6-.3 3.8.2a33.1 33.1 0 0 1 4-9l.3-.7c2.9-4.9 8.8-9.4 16.2-13a89.6 89.6 0 0 1 26.3-7.5c19-2.5 40.4.5 53.6 14.5Z" fill="#ffffff"/><g stroke="#000" stroke-width="3" stroke-linecap="round" stroke-linejoin="round"><path d="M78.7 115c-6.1 8.7-10.8 34.3-.6 51 11.6 22.5 35.3 28.9 59.6 26.6a54.7 54.7 0 0 0 45.7-38A56 56 0 0 0 175 109"/><path d="M181.2 118.4c2.6-1.2 5.6-1.7 7.4 1.5 1.9 3.2 3.2 7.3 1.7 13.6-1 4-3.3 4.9-5.3 4.9M73 124.6c-4.2-2-9.1 2.3-7.8 13.4 1 7.8 4 9.5 6.5 9.2"/></g><g transform="translate(113 126)"><path d="M23.3 22.4c.7.8 2.6 5.5-5.6 6.5-7 .8-7.1-3.7-7.1-5.3" stroke="#000" stroke-width="3" stroke-linecap="round" stroke-linejoin="round"/></g><g transform="translate(62 112)"></g><g transform="translate(98 169)"><g stroke="#000" stroke-width="3" stroke-linecap="round" stroke-linejoin="round"><path d="M16 6.6c5.3 2.5 13.5 8 22.7 7.7 11-.3 14.6-6.1 16-9.3"/><path d="M34.3 6.3c-3-1.9-8.6 1.8-10 4.2 1.6 5.5 7.4 9.2 14 9.2 7.3 0 11.3-6.3 12-8.5h0c-.7-1.2-1.8-3.3-4.8-4.9-3.7-2-6.1 6-6.8 6-.7 0-.6-3.6-4.4-6Z"/></g></g><g transform="translate(-2 4)"><g stroke="#000000" stroke-width="3" stroke-linecap="round" stroke-linejoin="round"><path d="M84.5 109.8c-19 22.5 5.5 100.5-7 132-4.3 10.8-20.5 19-33.5 16.5M145 68.3c9-8.5 24.1-7.2 34.5 0 13 9 26 24 31.5 106.5s25 82.5 33.5 81"/><path d="M144.5 79.8c-1.5 4-2 9.4-22 12-29 3.9-50.5-3-59 31s-.4 87.5-8 108.5-22.5 21.5-31 16.5"/><path d="M148.5 79.3c0 10-7 16-21.5 17-20.7 1.5-32.5-6.5-51 17.5-13.4 17.4 2.5 75.5-8 109.5-5 16.2-21 19-25 16.5M142 75.3c-3.5 3.5-4.5 6.2-24.5 9-25 3.5-41 4-50.5 17"/><path d="M142.5 71.3c-2.2 2.7-6.8 4.8-22 6-19 1.5-40 4.5-51 17"/><path d="M143 64.3c-5.3-3-24-6.5-45 2-24.6 10-47.3 26-54.5 71.5-7 44.5-7.6 61.5-10 81-.8 6.5-5.5 9-10 9"/><path d="M140 67.8c-17-2-29 0-46.5 9-15.5 8-32.5 20.5-38 62s-3.5 65-7.5 80c-3.3 12.3-12 13.5-17 13.5"/><path d="M21 241.8c4.7 1.5 15.6.3 18.5-18 4.5-28.5 5.6-53.7 7-76.5 1-16.5 3-41.5 35-62.5M148 70.8c14-4.5 33.4-5 41 24.5 9.5 37 12.5 138 22 150a20 20 0 0 0 23 6.5"/><path d="M146 75.3c11-3 30.5-4.5 37 21 6.2 24.5-.5 103.5 2.5 125.5s18.5 37.5 37 30"/><path d="M152 81.3c13.3-4 39.4 3.6 41 68 2 80.5 1.5 101 31 108"/><path d="M152 85.3c18.5 1.5 28.4 18.7 30 41.5 2 28.5-18.5 95.5 0 122 14.8 21.2 30.8 22.5 37 20.5"/></g></g><g transform="translate(69 153)"></g><g transform="translate(72 106)"><g stroke="#000" stroke-width="3" stroke-linecap="round" stroke-linejoin="round"><path d="M30.5 41.3c-5.1.3-8.2-4-9.2-6C27 30 35.5 33 39.1 35c-.7 2-3.4 6-8.6 6.3Z"/><path d="M28.6 37.2c.8.5 2.7 1.1 4-.8 1.6-2.4-2.4-5-3.7-3.8-1 1-.6 2.4-.2 3M90.7 35.2c1-.4 2.6-1.8 1.6-4-1.2-2.8-5.8-.8-5.5 1 .3 1.5 1.9 2 2.6 2"/><path d="M90.7 38.8c-5 1.2-9-2.8-9.8-5.5 4.6-6 15-3.5 17.6-1.3-.4 2-2.8 5.7-7.8 6.8ZM17.3 21c5.5-1.1 18.3-1.5 25.2 5.1M75.6 25.7c3.3-5.4 14.2-11.2 22-7.6"/></g></g></g></svg>