<svg xmlns="http://www.w3.org/2000/svg" viewBox="0 0 256 256" fill="none" shape-rendering="auto" width="512" height="512">
  <desc>"Croodles - Doodle your face" by "vijay verma", licensed under "CC BY 4.0". / Remix of the original. - Created with dicebear.com</desc>
  <metadata xmlns:dc="http://purl.org/dc/elements/1.1/"
    xmlns:cc="http://creativecommons.org/ns#"
    xmlns:rdf="http://www.w3.org/1999/02/22-rdf-syntax-ns#">
    <rdf:RDF>
      <cc:Work>
        <dc:title>Croodles - Doodle your face</dc:title>
        <dc:creator>
          <cc:Agent rdf:about="https://vijayverma.co/">
            <dc:title>vijay verma</dc:title>
          </cc:Agent>
        </dc:creator>
        <dc:source>https://www.figma.com/community/file/966199982810283152</dc:source>
        <cc:license rdf:resource="https://creativecommons.org/licenses/by/4.0/" />
      </cc:Work>
    </rdf:RDF>
  </metadata>
  <mask id="viewboxMask">
    <rect width="256" height="256" rx="0" ry="0" x="0" y="0" fill="#fff" />
  </mask>
  <g mask="url(#viewboxMask)">
    <rect fill="#6b7280" width="256" height="256" x="0" y="0" />
    <path d="M122.4 75.3c18.8-2.5 39.9.4 53.1 13.9l.6.2c3 2 4.6 4.2 6 7.5 1 2.7 1.8 6 2.8 10.5 1.3.1 3.5.5 5.4 2.1 2.2 2 3.3 5.5 2.3 11.2-.8 4.9-1.6 7.7-3.5 11-.7 1.5-1.8 3-3 4a4.8 4.8 0 0 1-5.2.5 249.6 249.6 0 0 1-18.5 46.7 93 93 0 0 1-15.2 20.2 27.8 27.8 0 0 1-19.2 8.4 16 16 0 0 1-8.5-3.3 58 58 0 0 1-9.4-8.3 194.4 194.4 0 0 1-36.2-59.6c-1.6.5-3.8.3-5.8-1.6-2-1.8-3.6-5.2-4.7-10.9-2-10.9 4.2-17.2 9.2-17.2h.1c1-4.2 1.9-7 2.8-9 1.2-2.7 2.5-4.1 4-5.8a72.8 72.8 0 0 0 1.3-1.5C83.9 90 89.4 86.1 96 83a90 90 0 0 1 26.3-7.6Z" fill="#ffffff"/>
    <g stroke="#000" stroke-width="3" stroke-linecap="round" stroke-linejoin="round">
      <path d="M185.5 108.6c2.2 0 9 .8 7 11.9-.8 4.9-1.6 7.5-3.4 10.8-1.5 2.9-3.7 5.2-6.4 3.9M71.3 111.8c-3.8 0-10 5.4-8 16 2.3 11.3 6.6 12.2 8.8 11.5"/>
      <path d="M80.5 95c-4 4.9-5.7 4.9-9.7 25.7-4 20.8 38.7 91.3 57.2 91.3 14 0 24.2-12.4 33.8-28.5 6.7-11.2 26-61.3 23.4-73.3-2.6-12-3.5-16.6-9-20.2"/>
    </g>
    <g transform="translate(116 119)">
      <path d="M13.3 12C15 28 20.7 22.4 23 31.3c2 7-9.2 7.7-12.1 5.4" stroke="#000" stroke-width="3" stroke-linecap="round" stroke-linejoin="round"/>
    </g>
    <g transform="translate(60 131)"></g>
    <g transform="translate(97 178)">
      <path d="M19.5 10c-1.3 2.1.4 7.7 15.3 6.8 14.9-1 19-9 14.5-8.8-6.2.2-10.7 4.2-20.1 2-3.4-.7-8.5-2-9.7 0Z" stroke="#000" stroke-width="3" stroke-linecap="round" stroke-linejoin="round"/>
    </g>
    <g transform="translate(-1 -14)">
      <path d="M69.5 137.3c-2.3-5-6-6.9-7.5-7.2l11.5-2.8-11.5-7.7 13.3 2.1L64 111.4 77 116l-13.8-12 16.7 6.7-15.6-15.5 17.9 8.9S63.3 82 64.4 80.5c1.2-1.4 20.8 14.7 20.8 14.7S70.8 77 71.9 76C73.1 74.8 88 89.7 88 89.7s-13.2-20.5-11-21c2.4-.6 16.2 17.7 16.2 17.7s-12-27.1-9.8-27.1C85.7 59.3 98 82 98 82l-5.6-24.2 13.6 22.7S99.6 51 101.3 51c1.7 0 13.1 29.5 13.1 29.5s0-26.6 2.4-26.6 6.4 28 6.4 28 4.7-28 6.4-28c1.7 0 6.4 29 8.7 29 0 0 1.4-27.7 3.3-27.6 2 .1 2 31 4 31 0 0 2.6-26.1 4.6-26 2 0 3.7 31.9 3.7 31.9s7-23.5 8.7-23c1.8.6-2.3 25 0 25 0 0 6.4-21.8 8.1-20.9 1.7 1-2.9 23.6-2.9 23.6s8-20 9.8-18.8c1.8 1-5.2 22.7-5.2 22.7s9.8-16 11-14.4c1.1 1.6-4 18.8-4 18.8s5.7-4.4 6.9-2.8c1.1 1.7-3 15-3 15l5.9-3.4a30 30 0 0 0-3 15" stroke="#000000" stroke-width="3" stroke-linecap="round" stroke-linejoin="round"/>
    </g>
    <g transform="translate(72 148)"></g>
    <g transform="translate(72 92)">
      <g stroke="#000" stroke-width="3" stroke-linecap="round" stroke-linejoin="round">
        <path d="M22.3 39.3c2.2-3.1 9-8.4 19-4M78 35c2.9-2.7 10.6-6.3 19.5 0"/>
        <path d="M30.8 34.8c-1 .5-2.7 2.1-1.5 4.5 1.5 3 6.5.5 6-1.5-.4-1.6-2.2-2-3-2M87.3 32.4c-1 .2-3 1.4-2.4 4 .8 3.3 6.3 2 6.2-.2 0-1.6-1.7-2.4-2.5-2.5M18 25.9c5.4-1.7 18-3.6 25.7 2.2M75.2 28.7c3.4-5.4 14.3-11.2 22-7.6"/>
      </g>
    </g>
  </g>
</svg>