<svg xmlns="http://www.w3.org/2000/svg" viewBox="0 0 256 256" fill="none" shape-rendering="auto" width="512" height="512"><desc>"Croodles - Doodle your face" by "vijay verma", licensed under "CC BY 4.0". / Remix of the original. - Created with dicebear.com</desc><metadata xmlns:dc="http://purl.org/dc/elements/1.1/" xmlns:cc="http://creativecommons.org/ns#" xmlns:rdf="http://www.w3.org/1999/02/22-rdf-syntax-ns#"><rdf:RDF><cc:Work><dc:title>Croodles - Doodle your face</dc:title><dc:creator><cc:Agent rdf:about="https://vijayverma.co/"><dc:title>vijay verma</dc:title></cc:Agent></dc:creator><dc:source>https://www.figma.com/community/file/966199982810283152</dc:source><cc:license rdf:resource="https://creativecommons.org/licenses/by/4.0/" /></cc:Work></rdf:RDF></metadata><mask id="viewboxMask"><rect width="256" height="256" rx="0" ry="0" x="0" y="0" fill="#fff" /></mask><g mask="url(#viewboxMask)"><rect fill="#9ca3af" width="256" height="256" x="0" y="0" /><path d="m176 91.2.3.4c.3.1.7.4.9.7a81 81 0 0 1 8 27.7c4.7-1.6 11.8 2 11.8 10 0 4-.3 6.7-1 9-.6 2.3-1.6 4-3 5.8a9.4 9.4 0 0 1-7.7 3.3 71.7 71.7 0 0 1-26.1 49.2 51.6 51.6 0 0 1-37.2 11.4 43.6 43.6 0 0 1-30.2-18 114.1 114.1 0 0 1-19.5-42.3c-1.5.2-3.8 0-6-1.2-3-1.5-5.7-4.7-6.8-10.6-1-5.3-.4-10 1.7-13a8 8 0 0 1 4.3-3.1c1.5-.5 3.2-.5 5 0A42.2 42.2 0 0 1 96 84.3a90.3 90.3 0 0 1 26.3-7.5c19.1-2.5 40.5.5 53.7 14.4Z" fill="#ffffff"/><g stroke="#000" stroke-width="3" stroke-linecap="round" stroke-linejoin="round"><path d="M81.3 95c-17 17-15 61 11 96.5 15 20.5 42.2 25.1 66.7 6.5 34.5-26.2 30.5-83 18-106"/><path d="M186.4 121.4c3.6-1.9 10.7.8 10.7 8.7 0 7.8-1.1 10.8-3.7 14.2-2 2.6-5.6 3.2-8 2.7M69.7 121.9c-7.7-2.4-12.2 4-10.2 14.6 2.1 11.4 10.2 11.3 12.5 10.8"/></g><g transform="translate(112 123)"><path d="M15.3 18c-4 .9-7.2 6.8-4 10 4 4 12.3 4.7 13.1 0 .7-3.9-1.3-6-2.7-6.7" stroke="#000" stroke-width="3" stroke-linecap="round" stroke-linejoin="round"/></g><g transform="translate(60 128)"></g><g transform="translate(95 180)"><g stroke="#000" stroke-width="3" stroke-linecap="round" stroke-linejoin="round"><path d="M11 11.2c3 1.1 9.3 3 24.3 1.7C54 11.2 54.3 9.6 58.7 7"/><path d="M35.7 7.6A36.7 36.7 0 0 0 17 12.7c15.7 12.4 34.8 0 34.8-2.6-2.4-1-2.4-3.3-16-2.5Z"/></g></g><g transform="translate(-1 -13)"><g stroke="#000000" stroke-width="3" stroke-linecap="round" stroke-linejoin="round"><path d="M127.5 87c-10.5-1.6-24.5-2.6-41 20M132.5 85c17.5-14 44.5 4.4 48 23.4M132 90.7c4 18.2 23 31.2 48 24.2"/><path d="M132 86.2c10 12.5 28 20 45 24M79.5 121.4c10 9.5 45-4 48.3-27.5M81.5 109c1-22.6 39-36.8 48.5-24.3M128 90.4c-28 6.2-21 18-42.5 23"/><path d="M121.3 97c-7 9.5-13.4 16-34.4 21.7M79.5 113C77 97.3 66 88.7 55.3 92 35 98.3 36 129.3 18 128.3"/><path d="M78.5 115c0-6.6-4.7-16.8-18.7-19.3s-35 2-33 44 2 43.4 1.5 55"/><path d="M68.5 109c-10-5-26.8.8-34 28.4-9 34.5-23.2 67.3-13.7 94.8"/><path d="M78.3 118.7c-6.5-9.5-23.8-8-29 4-6.5 15-17 81-21 90"/><path d="M78.8 119.2c-2.5-3-13.5-3-20.5 12s-15.5 54.5-3.5 92"/><path d="M78.8 120.7c-6-8.5-19.9-3.3-25.5 8.7-7 15-9.5 78-13.5 94M183 107c0-14.5 22.4-23.4 30-11.8 9.5 14.5 14 97.3 5 129.8"/><path d="M185 109c6.5-8.6 24.7-22 43.5-13.3 23.5 11 30 46 17.5 79s-17 46.2-3.5 54.2"/><path d="M181.5 110.7c7-15.5 40.6-19.3 51 1.5 13 26 5.5 42-5 98"/><path d="M184 110.4c16-9.5 46.9-12.5 60.5 16.3 13.6 28.8 5.7 70.7 0 88"/><path d="M183.5 114c9-9 37.8-11.7 47 10.7 11.5 28-2 68.5 5 92.5"/><path d="M183 112.4c1.5-.5 37.5-5.7 45 31.3s-3.5 65.5 2.5 81.5"/><path d="M183 113.4c5.5-8.5 22.6-2.3 29 21.3 6.4 23.6 10 67.2 11 86M134.5 85.7c5.8-1.2 26 0 39 18.7M7.3 232.7c-2.5-3.2-6-14.6 0-35 7.5-25.5 18.5-62.5 21-70s17-24.5 31-24.5 17.7 7.2 19.2 14.2"/><path d="M73.7 118.6c0 2.8 2.7 5.5 6.3-.4 3.9-6.2 1.9-11-.3-10.3M186.5 114.6c0 3.1-2.8 5.7-6-1.3-3.3-7.6-1.2-12.6.9-11.5"/></g></g><g transform="translate(67 152)"></g><g transform="translate(71 102)"><g stroke="#000" stroke-width="3" stroke-linecap="round" stroke-linejoin="round"><path d="M22.3 39.3c2.2-3.1 9-8.4 19-4M78 35c2.9-2.7 10.6-6.3 19.5 0"/><path d="M30.8 34.8c-1 .5-2.7 2.1-1.5 4.5 1.5 3 6.5.5 6-1.5-.4-1.6-2.2-2-3-2M87.3 32.4c-1 .2-3 1.4-2.4 4 .8 3.3 6.3 2 6.2-.2 0-1.6-1.7-2.4-2.5-2.5M18 25.9c5.4-1.7 18-3.6 25.7 2.2M75.2 28.7c3.4-5.4 14.3-11.2 22-7.6"/></g></g></g></svg>