<svg xmlns="http://www.w3.org/2000/svg" viewBox="0 0 256 256" fill="none" shape-rendering="auto" width="512" height="512"><desc>"Croodles - Doodle your face" by "vijay verma", licensed under "CC BY 4.0". / Remix of the original. - Created with dicebear.com</desc><metadata xmlns:dc="http://purl.org/dc/elements/1.1/" xmlns:cc="http://creativecommons.org/ns#" xmlns:rdf="http://www.w3.org/1999/02/22-rdf-syntax-ns#"><rdf:RDF><cc:Work><dc:title>Croodles - Doodle your face</dc:title><dc:creator><cc:Agent rdf:about="https://vijayverma.co/"><dc:title>vijay verma</dc:title></cc:Agent></dc:creator><dc:source>https://www.figma.com/community/file/966199982810283152</dc:source><cc:license rdf:resource="https://creativecommons.org/licenses/by/4.0/" /></cc:Work></rdf:RDF></metadata><mask id="viewboxMask"><rect width="256" height="256" rx="0" ry="0" x="0" y="0" fill="#fff" /></mask><g mask="url(#viewboxMask)"><rect fill="#9ca3af" width="256" height="256" x="0" y="0" /><path d="M75 97.4a66.3 66.3 0 0 1 6-18.2c2.8-4.9 8.8-9.3 16.2-12.9a90.8 90.8 0 0 1 26.4-7.5c19-2.5 40.1.4 53.4 13.9.3 0 .5.3.7.5a38.4 38.4 0 0 1 5.5 23.8c.9 0 1.9 0 2.9.2 1.5.5 2.9 1.6 4 3.4.6 1 .8 2.4.9 3.7 0 1.4 0 2.9-.3 4.3-.6 3-1.6 6-3 8.2-2.2 3.7-4.6 4.7-6.2 5h-.2l-2.1 15c-4.2 27.3-11 49.4-19.2 64.9-4 7.7-8.5 14-13.1 18.3a26.6 26.6 0 0 1-14.4 7.9c-8.8 1.2-24.8-4.6-41.3-35.6a168.2 168.2 0 0 1-17.8-69.7 7 7 0 0 1-4.4-2.3 13.7 13.7 0 0 1-3.3-6.7c-1.4-6.7-.5-11.3 1.8-14 2-2.4 5-3 7.5-2.2Z" fill="#ffffff"/><g stroke="#000" stroke-width="3" stroke-linecap="round" stroke-linejoin="round"><path d="M182.8 98.1c2.3-.3 5-.3 6.8 2.9 1.8 3.2.1 11-2.3 15-2 3.5-4.2 4.3-5.4 4.5M74 98.7c-4.3-2-11.1 1.2-8.4 14.6 1.1 5.2 4.6 8.4 7.1 8"/><path d="M81 79.4c-14.7 29-6 82.7 10.6 114.3 16.6 31.6 32.4 36.8 40.4 35.7 18.5-2.6 37.9-36.2 46.3-92.3C184 99.5 184 83 177.1 73"/></g><g transform="translate(117 128)"><path d="M23.3 22.4c.7.8 2.6 5.5-5.6 6.5-7 .8-7.1-3.7-7.1-5.3" stroke="#000" stroke-width="3" stroke-linecap="round" stroke-linejoin="round"/></g><g transform="translate(62 148)"></g><g transform="translate(97 191)"><path d="M13.6 14.5c4.7 4 12.5 10.4 22.9-2 6.6-7.8 15.9.9 18.4-3.2M10 17.3c1.6-1 4.8-3.8 5-6.7M55.3 6c-.1 1.9.1 6 2.2 8" stroke="#000" stroke-width="3" stroke-linecap="round" stroke-linejoin="round"/></g><g transform="translate(0 -31)"><path d="M94.4 104c5-3.2 18.6-14.7 21.9-17M73.2 111.4c4-4.3 14.6-18.7 17.3-21.6M81.2 107.9a242 242 0 0 1 17-18M89.5 103.5a120 120 0 0 0 12-11M105.3 84.3c5-.5 9.4-6 11.5-8.7M174.4 104.7c7-.6 16.2-6.3 19-7.1M67 109.2c2.7-3.3 9.3-8.2 10.4-12M102.6 102.4c6.4-5.3 19.7-16.2 22-17.5M110.8 100.8c4.8-3.5 15.5-11.4 20.3-15.4M117.4 101.5l19.2-16c2.2-1.6-9.9 11-13.2 14.9M129.4 99.7c4.2-3.9 13.2-12 15.4-13.7M137.1 97.5c4.4-3.9 13.7-12 15.9-14.3M144.2 96.4c3.7-3.5 11.8-11 14.8-13.2M148.6 97.7c2.7-2.3 10.7-8 20.3-12.5M156.8 98c3.5-2.7 12-8.8 18.7-11.5M164 97.5c1.4-1.5 6.2-5.3 13.6-8.8M70.8 97.5c3.9-2.2 6-4.4 7.2-16M93.3 77.8c-5.5 3.8-8.2 3.8-12 6M81.2 94.2c1.7-2.9 7-8.8 14.3-9.9M118 71.7c-2 .4-7 2.1-10.5 6M192 83.2a18 18 0 0 0-5.7 8M195.2 92a18 18 0 0 0-8.8 4.4M182.6 93.6c-1 .7-3.3 3-4.2 6M126.6 69.1c-1.7 1.1-5.7 4.8-2.5 12.4M135.5 71.2c-2 .4-7.2 2.2-7.2 10.4M142.6 81.6c4.7-2.2 14.8-7.8 17-12.6M138.2 81.6c4.4-4.4 10.4-7.7 15.9-12M132.7 82.2c3.9-3.3 7.2-8.3 10.4-12.7M165 73.4l-11.5 5M175.5 75.6c-.5 0-9.7 6.5-14.3 9.8M172.3 83.2c3.7-1.2 9.6-2.7 12.3-3.2M171.6 97.5a89 89 0 0 0 11.5-11M97.1 75.6c0-1 1-2.8 5-2.8M170.7 71.7c.4.9-1.8 4.4-9 8.3M102.6 88.7a70 70 0 0 0 15.9-6.6M106.4 71.2c-1 3.5-4.2 11.3-8.2 14.8" stroke="#000000" stroke-width="3" stroke-linecap="round" stroke-linejoin="round"/></g><g transform="translate(70 157)"></g><g transform="translate(72 80)"><g stroke="#000" stroke-width="3" stroke-linecap="round" stroke-linejoin="round"><path d="M30.5 41.3c-5.1.3-8.2-4-9.2-6C27 30 35.5 33 39.1 35c-.7 2-3.4 6-8.6 6.3Z"/><path d="M28.6 37.2c.8.5 2.7 1.1 4-.8 1.6-2.4-2.4-5-3.7-3.8-1 1-.6 2.4-.2 3M90.7 35.2c1-.4 2.6-1.8 1.6-4-1.2-2.8-5.8-.8-5.5 1 .3 1.5 1.9 2 2.6 2"/><path d="M90.7 38.8c-5 1.2-9-2.8-9.8-5.5 4.6-6 15-3.5 17.6-1.3-.4 2-2.8 5.7-7.8 6.8ZM17.3 21c5.5-1.1 18.3-1.5 25.2 5.1M75.6 25.7c3.3-5.4 14.2-11.2 22-7.6"/></g></g></g></svg>