<svg xmlns="http://www.w3.org/2000/svg" viewBox="0 0 256 256" fill="none" shape-rendering="auto" width="512" height="512"><desc>"Croodles - Doodle your face" by "vijay verma", licensed under "CC BY 4.0". / Remix of the original. - Created with dicebear.com</desc><metadata xmlns:dc="http://purl.org/dc/elements/1.1/" xmlns:cc="http://creativecommons.org/ns#" xmlns:rdf="http://www.w3.org/1999/02/22-rdf-syntax-ns#"><rdf:RDF><cc:Work><dc:title>Croodles - Doodle your face</dc:title><dc:creator><cc:Agent rdf:about="https://vijayverma.co/"><dc:title>vijay verma</dc:title></cc:Agent></dc:creator><dc:source>https://www.figma.com/community/file/966199982810283152</dc:source><cc:license rdf:resource="https://creativecommons.org/licenses/by/4.0/" /></cc:Work></rdf:RDF></metadata><mask id="viewboxMask"><rect width="256" height="256" rx="0" ry="0" x="0" y="0" fill="#fff" /></mask><g mask="url(#viewboxMask)"><rect fill="#9ca3af" width="256" height="256" x="0" y="0" /><path d="M75 97.4a66.3 66.3 0 0 1 6-18.2c2.8-4.9 8.8-9.3 16.2-12.9a90.8 90.8 0 0 1 26.4-7.5c19-2.5 40.1.4 53.4 13.9.3 0 .5.3.7.5a38.4 38.4 0 0 1 5.5 23.8c.9 0 1.9 0 2.9.2 1.5.5 2.9 1.6 4 3.4.6 1 .8 2.4.9 3.7 0 1.4 0 2.9-.3 4.3-.6 3-1.6 6-3 8.2-2.2 3.7-4.6 4.7-6.2 5h-.2l-2.1 15c-4.2 27.3-11 49.4-19.2 64.9-4 7.7-8.5 14-13.1 18.3a26.6 26.6 0 0 1-14.4 7.9c-8.8 1.2-24.8-4.6-41.3-35.6a168.2 168.2 0 0 1-17.8-69.7 7 7 0 0 1-4.4-2.3 13.7 13.7 0 0 1-3.3-6.7c-1.4-6.7-.5-11.3 1.8-14 2-2.4 5-3 7.5-2.2Z" fill="#ffffff"/><g stroke="#000" stroke-width="3" stroke-linecap="round" stroke-linejoin="round"><path d="M182.8 98.1c2.3-.3 5-.3 6.8 2.9 1.8 3.2.1 11-2.3 15-2 3.5-4.2 4.3-5.4 4.5M74 98.7c-4.3-2-11.1 1.2-8.4 14.6 1.1 5.2 4.6 8.4 7.1 8"/><path d="M81 79.4c-14.7 29-6 82.7 10.6 114.3 16.6 31.6 32.4 36.8 40.4 35.7 18.5-2.6 37.9-36.2 46.3-92.3C184 99.5 184 83 177.1 73"/></g><g transform="translate(117 128)"><path d="M2 2.7c3.5 0 7.7 5.7 8.1 14.8.7 14.7-4.2 19.4 0 27 2.7 5 17.8 4.7 21.9-3.6 3.2-6.5-3-12-6.6-20.7-3.5-8.3-5.7-13.4-2-18.2" stroke="#000" stroke-width="3" stroke-linecap="round" stroke-linejoin="round"/></g><g transform="translate(62 148)"></g><g transform="translate(97 191)"><path d="M54.7 2c-7.3 0-26-.6-38.7 2.7C16 15.4 28.6 25 39.2 22 50 19 56.2 7 54.7 2Z" stroke="#000" stroke-width="3" stroke-linecap="round" stroke-linejoin="round"/></g><g transform="translate(0 -31)"><g stroke="#000000" stroke-width="3" stroke-linecap="round" stroke-linejoin="round"><path d="M86.3 99.9c-5.8-4-11-6.4-16.1-7.5M82.3 102.2C78.8 101 75.9 101 69 101M91 97.6c-4.1-4-11.6-11-13.4-13.3M93.2 94c-3-2.2-9.6-8.6-11-15.5M86.9 77.4c.5 1.9 2 7.4 6.9 13.2 2.9 3.5 5.2 5.2 7 8.1M91.5 76.2c1.1 5.2 5.2 13.3 10.4 16.2M105.3 95.8c-5.2-4-8.6-15.5-9.2-21.9M100.1 70.5c0 4 0 15 6.4 19M105.3 72.8c2 4.9 6 16.7 6 24.3M111.4 84.9a42 42 0 0 1-1.2-14.4M114.5 77.4c.4 4.2 2 13.6 5.2 17.3"/><path d="M119.2 68.7c-.8 4.6-3 17.9-.6 24.2M120.9 80.3c1 4 4 11 8.6 13.8"/><path d="M126 90c-2.8-6.9-2.1-15.6-1.7-20.7M127.2 74c0 2 1.2 8.3 5.8 16.6"/><path d="M133 68.7a44 44 0 0 0 0 22M135.9 75.6a39.3 39.3 0 0 0 4.6 22M142.2 90c1.2-9.2-1.2-14.4-2.3-19M143.4 82c3.4 5.8 4 9.8 3.4 15M145.3 78c-.6-2.2-1.4-7.3 0-11M78.8 91.2a19 19 0 0 1-7.5-4M154.2 80.7c.8-2.3 1.6-9.3 1.2-12.5M150.3 69.3a66.1 66.1 0 0 0 1.7 26.5M156.2 96c-.4-2.4-1.1-8.1 0-11.7M160 94c-.3-3.4-1.2-15.6 3-20.7M164.1 95.8V79.7M174 81.4c-2.2 1.2-8.2 7-9.9 14.4M172.2 72.8c-1.3 1.2-4 4.8-4.6 9.2M177.4 79.7c-2 3.2-5.8 11.2-5.8 16.7M182.6 83.1c-3.1 3.5-9.5 11-10.4 13.3M186 94.7s-5.7 1.7-10.4 5.7"/></g></g><g transform="translate(70 157)"></g><g transform="translate(72 80)"><g stroke="#000" stroke-width="3" stroke-linecap="round" stroke-linejoin="round"><path d="M23.2 17.6c1.6.8 6 1.7 11.2 1.3 4.5-.4 6.5-1.5 7.8-2.9M75.2 15c2.1 1.9 5.9 2.3 8.3 2.3 2.3.1 5 0 7.1-.4M4 18.5 17.7 26M48.2 29.8A31.5 31.5 0 0 1 68.7 28M96.9 25.6c2.5-1.3 10.6-7.7 13.1-9.6M18.1 26.6c-.3 3.7-1.7 15.6 0 17.6 2.6 3 27.8-1 29.5-1.5 1.6-.6 2-8.8-.5-15.4-2.2-5.5-20.8-3.1-28.4-1.8"/><path d="m19.5 31.9 2.8-5.4c-.8 3.3-3 11-2.8 12 .3 1.2 5.7-12.6 6.3-12.6.6.1-4.5 16-4.5 17s6-17 6.9-17c.9 0-4.2 15.6-3.6 16.5.6 1 5.4-16 6.2-16.9.7-.9-4.3 18.2-3.4 18.1.8 0 6.1-21 6.9-19 .7 2-4.9 21.2-3 19.5 2-1.6 5.4-21 6.8-19.5 1.4 1.5-3.6 20-2.4 19.5 1.3-.5 4.6-17.6 5.2-17.6.6 0-1 17.1-.5 17.1s3.3-14 3.7-15.1c.3-1.2 1-.5 1 3.4-.1 3-1.3 9-1.6 11l3-7.6M70.8 33l2.8-7c-.8 3.3-2.3 10-2 10.9.2 1.2 5-11.5 5.5-11.4.6 0-3.5 13.1-3.5 14 0 1 5-14 5.9-14 .9 0-3.6 14.8-3 15.7.6.9 4.8-15.3 5.6-16.2.7-.9-4.3 18.2-3.4 18.1.8 0 6.1-21 6.9-19 .7 2-5.1 20.7-3.2 19 2-1.6 5.6-20.5 7-19 1.4 1.5-3.6 20-2.4 19.6C88.3 43 91.6 26 92.2 26c.6 0-1 17-.5 17s2.7-12.7 3-13.9c.4-1.1 1.3-.5 1.2 3.3 0 3.1-.8 7.9-1.1 9.9l3-7.6"/><path d="M70.5 24.8c6-2.7 22.2-1 25.2 0 3.8 1.1 3.6 14.7 3.3 18-.4 3.4-22.1.2-26.8 0-3.7-.1-3-12.7-2.1-17.6"/></g></g></g></svg>