<svg xmlns="http://www.w3.org/2000/svg" viewBox="0 0 256 256" fill="none" shape-rendering="auto" width="512" height="512">
  <desc>"Croodles - Doodle your face" by "vijay verma", licensed under "CC BY 4.0". / Remix of the original. - Created with dicebear.com</desc>
  <metadata xmlns:dc="http://purl.org/dc/elements/1.1/"
    xmlns:cc="http://creativecommons.org/ns#"
    xmlns:rdf="http://www.w3.org/1999/02/22-rdf-syntax-ns#">
    <rdf:RDF>
      <cc:Work>
        <dc:title>Croodles - Doodle your face</dc:title>
        <dc:creator>
          <cc:Agent rdf:about="https://vijayverma.co/">
            <dc:title>vijay verma</dc:title>
          </cc:Agent>
        </dc:creator>
        <dc:source>https://www.figma.com/community/file/966199982810283152</dc:source>
        <cc:license rdf:resource="https://creativecommons.org/licenses/by/4.0/" />
      </cc:Work>
    </rdf:RDF>
  </metadata>
  <mask id="viewboxMask">
    <rect width="256" height="256" rx="0" ry="0" x="0" y="0" fill="#fff" />
  </mask>
  <g mask="url(#viewboxMask)">
    <rect fill="#9ca3af" width="256" height="256" x="0" y="0" />
    <path d="m176 91.2.3.4c.3.1.7.4.9.7a81 81 0 0 1 8 27.7c4.7-1.6 11.8 2 11.8 10 0 4-.3 6.7-1 9-.6 2.3-1.6 4-3 5.8a9.4 9.4 0 0 1-7.7 3.3 71.7 71.7 0 0 1-26.1 49.2 51.6 51.6 0 0 1-37.2 11.4 43.6 43.6 0 0 1-30.2-18 114.1 114.1 0 0 1-19.5-42.3c-1.5.2-3.8 0-6-1.2-3-1.5-5.7-4.7-6.8-10.6-1-5.3-.4-10 1.7-13a8 8 0 0 1 4.3-3.1c1.5-.5 3.2-.5 5 0A42.2 42.2 0 0 1 96 84.3a90.3 90.3 0 0 1 26.3-7.5c19.1-2.5 40.5.5 53.7 14.4Z" fill="#ffffff"/>
    <g stroke="#000" stroke-width="3" stroke-linecap="round" stroke-linejoin="round">
      <path d="M81.3 95c-17 17-15 61 11 96.5 15 20.5 42.2 25.1 66.7 6.5 34.5-26.2 30.5-83 18-106"/>
      <path d="M186.4 121.4c3.6-1.9 10.7.8 10.7 8.7 0 7.8-1.1 10.8-3.7 14.2-2 2.6-5.6 3.2-8 2.7M69.7 121.9c-7.7-2.4-12.2 4-10.2 14.6 2.1 11.4 10.2 11.3 12.5 10.8"/>
    </g>
    <g transform="translate(112 123)">
      <path d="M13.7 15c3.9 2.1 11 11.9 10.2 17.3-.5 3.6-8.5 2.5-12.9 1.7" stroke="#000" stroke-width="3" stroke-linecap="round" stroke-linejoin="round"/>
    </g>
    <g transform="translate(60 128)"></g>
    <g transform="translate(95 180)">
      <g stroke="#000" stroke-width="3" stroke-linecap="round" stroke-linejoin="round">
        <path d="M54.3 13.7c4.9-9.4-1.4-10-6.6-7.4a48.9 48.9 0 0 1-23.5 2.4C17.8 6.3 14.4 2 14 13c-.4 11 36.2 8.6 40.3.8Z"/>
        <path d="M15.2 11.9c8 2.7 27 5.8 39.2-4M24 11l-1 5.6M30.8 12.4l-.5 6.2M37.4 11.7l1 6.4M45.3 9.8l1.4 7"/>
      </g>
    </g>
    <g transform="translate(-1 -13)">
      <path d="M94.4 104c5-3.2 18.6-14.7 21.9-17M73.2 111.4c4-4.3 14.6-18.7 17.3-21.6M81.2 107.9a242 242 0 0 1 17-18M89.5 103.5a120 120 0 0 0 12-11M105.3 84.3c5-.5 9.4-6 11.5-8.7M174.4 104.7c7-.6 16.2-6.3 19-7.1M67 109.2c2.7-3.3 9.3-8.2 10.4-12M102.6 102.4c6.4-5.3 19.7-16.2 22-17.5M110.8 100.8c4.8-3.5 15.5-11.4 20.3-15.4M117.4 101.5l19.2-16c2.2-1.6-9.9 11-13.2 14.9M129.4 99.7c4.2-3.9 13.2-12 15.4-13.7M137.1 97.5c4.4-3.9 13.7-12 15.9-14.3M144.2 96.4c3.7-3.5 11.8-11 14.8-13.2M148.6 97.7c2.7-2.3 10.7-8 20.3-12.5M156.8 98c3.5-2.7 12-8.8 18.7-11.5M164 97.5c1.4-1.5 6.2-5.3 13.6-8.8M70.8 97.5c3.9-2.2 6-4.4 7.2-16M93.3 77.8c-5.5 3.8-8.2 3.8-12 6M81.2 94.2c1.7-2.9 7-8.8 14.3-9.9M118 71.7c-2 .4-7 2.1-10.5 6M192 83.2a18 18 0 0 0-5.7 8M195.2 92a18 18 0 0 0-8.8 4.4M182.6 93.6c-1 .7-3.3 3-4.2 6M126.6 69.1c-1.7 1.1-5.7 4.8-2.5 12.4M135.5 71.2c-2 .4-7.2 2.2-7.2 10.4M142.6 81.6c4.7-2.2 14.8-7.8 17-12.6M138.2 81.6c4.4-4.4 10.4-7.7 15.9-12M132.7 82.2c3.9-3.3 7.2-8.3 10.4-12.7M165 73.4l-11.5 5M175.5 75.6c-.5 0-9.7 6.5-14.3 9.8M172.3 83.2c3.7-1.2 9.6-2.7 12.3-3.2M171.6 97.5a89 89 0 0 0 11.5-11M97.1 75.6c0-1 1-2.8 5-2.8M170.7 71.7c.4.9-1.8 4.4-9 8.3M102.6 88.7a70 70 0 0 0 15.9-6.6M106.4 71.2c-1 3.5-4.2 11.3-8.2 14.8" stroke="#000000" stroke-width="3" stroke-linecap="round" stroke-linejoin="round"/>
    </g>
    <g transform="translate(67 152)">
      <path d="M63.3 24.1c-4.7-1.7-22.6 3-28 1.5-5.3-1.5-8.6-4.8-6.6-7.3s2.5-1 3.3 0c.7.8 1.6 1.5 3 1.2 2-.4 3.3-1.7 2.2-3.7-1.3-2.5-10.8-2.5-11.7 0-.8 2.5-1.8 10.6 7.4 12.6 9.1 2 29-3.6 30.4-2.8 1.3.8 13.5 2.2 22.8 1.7 9.4-.6 19-7.2 16.6-11.5-2.5-4.4-14-2.9-11.8-.4.7.6 2.6 1.5 4 .4 1.6-1.5 4.4 1.2 0 5.3-3.4 3-24.1 6-29.6 3" stroke="#000" stroke-width="3" stroke-linecap="round" stroke-linejoin="round"/>
    </g>
    <g transform="translate(71 102)">
      <g stroke="#000" stroke-linecap="round" stroke-linejoin="round">
        <path d="M34 27.7c7-2.6 13.2 5.2 13.2 10.9 0 6.8-5.3 12.5-10.3 12.5-5 0-9.9-5.7-9.9-12.5 0-5.7 4-9.8 7.8-11.3M77.4 23.2c6.6-2.6 11 5.4 11 11 0 6.8-3.8 12.6-8.5 12.6-4.6 0-9-4.7-9-12.2C71 27 74.5 24.4 78 23" stroke-width="3"/>
        <path d="M40.1 40.5s0 0 0 0M82 38.2s0 0 0 0" stroke-width="6"/>
        <path d="M28.2 19.3c2.8-3.2 10-7.9 17-1.6M66.2 15.1c4.3-4.2 14.4-10.4 20-1.8" stroke-width="3"/>
      </g>
    </g>
  </g>
</svg>