<svg xmlns="http://www.w3.org/2000/svg" viewBox="0 0 256 256" fill="none" shape-rendering="auto" width="512" height="512">
  <desc>"Croodles - Doodle your face" by "vijay verma", licensed under "CC BY 4.0". / Remix of the original. - Created with dicebear.com</desc>
  <metadata xmlns:dc="http://purl.org/dc/elements/1.1/"
    xmlns:cc="http://creativecommons.org/ns#"
    xmlns:rdf="http://www.w3.org/1999/02/22-rdf-syntax-ns#">
    <rdf:RDF>
      <cc:Work>
        <dc:title>Croodles - Doodle your face</dc:title>
        <dc:creator>
          <cc:Agent rdf:about="https://vijayverma.co/">
            <dc:title>vijay verma</dc:title>
          </cc:Agent>
        </dc:creator>
        <dc:source>https://www.figma.com/community/file/966199982810283152</dc:source>
        <cc:license rdf:resource="https://creativecommons.org/licenses/by/4.0/" />
      </cc:Work>
    </rdf:RDF>
  </metadata>
  <mask id="viewboxMask">
    <rect width="256" height="256" rx="0" ry="0" x="0" y="0" fill="#fff" />
  </mask>
  <g mask="url(#viewboxMask)">
    <rect fill="#9ca3af" width="256" height="256" x="0" y="0" />
    <path d="M73.7 93.5a45.6 45.6 0 0 1 7.2-17c3-5 9-9.5 16.4-13a90.1 90.1 0 0 1 26.4-7.7c19-2.5 40.2.5 53.5 14l.6.4c7.8 7.5 9.5 18.5 9.2 30.3v1.3c1.5.3 3.3 1.3 4.8 3.2 1.8 2.4 2.8 6.3 1.8 12a21.4 21.4 0 0 1-2.9 8.1l-.8 1.5c-.8 1.4-1.6 2.9-2.7 3.8a4 4 0 0 1-3 .9l-.5 6.4c-2.2 37-4.7 59.8-22.1 79.2-16.9 18.7-43.6 13.3-57 0-10.7-10.7-28.5-33-32-83.4-1.9.3-3.7-1-5-3-1.6-2.4-3-6.1-4.1-11.8-1-5.5-.3-9.4 1.5-12a8.2 8.2 0 0 1 6.8-3.4h.5c.3-3.7.8-7 1.4-9.8Z" fill="#ffffff"/>
    <g stroke="#000" stroke-width="3" stroke-linecap="round" stroke-linejoin="round">
      <path d="M186.4 102.2c2.3 0 8.3 2.7 6.4 13.8-.9 4.9-2 6-3.7 9.2-1.5 2.8-2.7 4.9-5.5 3.6M70.4 103.8c-3.8 0-9 3.2-7 13.8 2.2 11.4 5.6 14.4 7.9 13.7"/>
      <path d="M82.2 74.4C75 84.8 70.4 94 72.7 131c3.2 51.9 21.4 74.5 32.2 85.2 13.1 13 39.3 18 55.7 0 17.3-19.2 19.8-41.8 22-79.2 1.5-24.9 9.4-52.8-5.4-67"/>
    </g>
    <g transform="translate(117 131)">
      <path d="M13.3 12C15 28 20.7 22.4 23 31.3c2 7-9.2 7.7-12.1 5.4" stroke="#000" stroke-width="3" stroke-linecap="round" stroke-linejoin="round"/>
    </g>
    <g transform="translate(63 147)"></g>
    <g transform="translate(100 194)">
      <path d="M12 5.6c2.4 4 6.6 15.1 22.7 15.1C51 20.7 57 6.5 57.7 5" stroke="#000" stroke-width="3" stroke-linecap="round" stroke-linejoin="round"/>
    </g>
    <g transform="translate(0 -34)">
      <g stroke="#000000" stroke-width="3" stroke-linecap="round" stroke-linejoin="round">
        <path d="M116.5 77c11.4-6.3 49-9 61 29.4 18 58.5 31.5 61.8 38.3 66.5"/>
        <path d="M185 144c5.4 32.3-.3 71.4 1.3 85.3 2 17.5 5.4 22.2 14.8 28.3"/>
        <path d="M169.5 76c17.5 18 12.5 37 8 117.5-2 34.9 16 48.3 20.6 50.5"/>
        <path d="M117.6 76.8c8.1-7.3 34.4-15.3 53.4 0 17.7 14.4 21.8 33.6 22.6 81.4.5 33.8 4.7 43.2 6.7 43.6M115.6 77.5A71.7 71.7 0 0 0 78 142.7c0 33 4 82-13.4 104.2"/>
        <path d="M114.7 76a56 56 0 0 0-42.3 51.7c-3.4 31.6 2 76-9.4 102.9"/>
        <path d="M46.4 241.5c-.2-10.3.3-33.8 4-45 4.7-14.2 3.5-88.7 32.3-111 17.5-13.4 33-12.7 36.3-10M119 74.8c3.3-8 20.3-18 44.3-9.4 30.3 10.8 48.4 39.8 43.7 76.1-4.5 34.6-19.7 79.4-1 108"/>
        <path d="M117.6 72.8c2.7-8.3 13.2-23.4 33.6-17.5 25.6 7.4 49.8 31.6 53.1 95.5 3.4 63.8-10 86 24.2 114.9M116.3 72.1c-10.8-7.4-38.3 2-57.1 37.7C39.9 146.2 43.7 217.3 37 234"/>
        <path d="M119 74.2c-2.7-7-12.4-19-29.6-11.5-21.5 9.4-37 24.9-47 84.7-10.1 59.8 6 74.6-2 102.8M120 80.5a67 67 0 0 0 2.8 21.9M125 79c1.5 5.5 4.5 18.5 9.5 23M131.5 78c4.5 8.5 10.2 18.9 12.3 23.7M142.5 78c7.5 3 15.5 10.5 20 17.5M137 78c5 3 10.3 13.2 16.3 19.7M115 85c-.3 3.5-1.8 11.7-6 16"/>
        <path d="M99.5 97c2-1.3 5.5-6 11-12.5M60.5 171.6c.5 11.6-1.6 36.7-2.7 46.4-1.3 12-6 23.5-10.7 30.2"/>
      </g>
    </g>
    <g transform="translate(72 160)"></g>
    <g transform="translate(72 89)">
      <g stroke="#000" stroke-width="3" stroke-linecap="round" stroke-linejoin="round">
        <path d="M20.8 12.3c1.7-1.3 6.2-2.6 11.3-2 4.5.7 6.4 2.3 7.7 4.3M72.9 14.2c2-3 5.7-3.7 8-4 2.4-.2 5.1-.2 7.3.4M4 21.2l13.7 6.5M48.2 31.5a31.5 31.5 0 0 1 20.5-1.8M96.9 27.3a193 193 0 0 0 13.1-8.6M24.6 49.9c-5-3.1-10.5-15.7-5.9-22.7 5.3-7.8 23.8-8.7 28.1 2.4 2.6 6.5 1.6 12.7 1 14.3-1.9 4.5-10.3 13.9-23.2 6ZM95.5 26.5c-5.6-8-21-8.3-25.4.4-1.9 3.7-3 14.2 4.4 20.2 3.8 3 18 8.2 22.8-5.2 2.2-6.3.4-12.2-1.8-15.4Z"/>
        <path d="M34.4 29.8c-.4.2-1.1 1-.8 1.8.4 1.2 3.4 2.5 3.5.9.1-1.7-.5-2.3-1.2-1.6M81 27.7c-.6.5-1.7 1.8-1 2.3 1 .6 4.2 2.3 4 0-.3-1.9-1.1-1.7-1.5-1.4l-.9.7"/>
      </g>
    </g>
  </g>
</svg>