<svg xmlns="http://www.w3.org/2000/svg" viewBox="0 0 256 256" fill="none" shape-rendering="auto" width="512" height="512"><desc>"Croodles - Doodle your face" by "vijay verma", licensed under "CC BY 4.0". / Remix of the original. - Created with dicebear.com</desc><metadata xmlns:dc="http://purl.org/dc/elements/1.1/" xmlns:cc="http://creativecommons.org/ns#" xmlns:rdf="http://www.w3.org/1999/02/22-rdf-syntax-ns#"><rdf:RDF><cc:Work><dc:title>Croodles - Doodle your face</dc:title><dc:creator><cc:Agent rdf:about="https://vijayverma.co/"><dc:title>vijay verma</dc:title></cc:Agent></dc:creator><dc:source>https://www.figma.com/community/file/966199982810283152</dc:source><cc:license rdf:resource="https://creativecommons.org/licenses/by/4.0/" /></cc:Work></rdf:RDF></metadata><mask id="viewboxMask"><rect width="256" height="256" rx="0" ry="0" x="0" y="0" fill="#fff" /></mask><g mask="url(#viewboxMask)"><rect fill="#9ca3af" width="256" height="256" x="0" y="0" /><path d="M73.3 106.5c2-5.5 4-9.8 5.4-12.2-.1-.4 0-.8.1-1.1 3-4.9 9-9.3 16.4-12.9a90.7 90.7 0 0 1 26.3-7.5c19.2-2.5 40.7.5 53.9 14.4.2.3.4.6.4 1 1 1.1 2.2 3.2 3.6 6a109 109 0 0 1 4.4 10.2c1.4-.5 3-.7 4.6-.5a7 7 0 0 1 5.4 3.3c2 3.5 2.9 10 1.6 15.8a6.7 6.7 0 0 1-2.6 4.2 6 6 0 0 1-2.3 1c.5 2.8 1 5.6 1.3 8.5 2.8 23.3-1.3 49.6-26 62.6-23.6 12.4-47 16-65.6 12.3-18.7-3.8-32.6-15-36.7-32.5-3.2-13.5-1.3-31 2.2-46.7-1.5-.3-3-1.4-3.9-3-1.3-2.1-2-5.2-1.7-9.2.5-6.2 2.1-10.6 4.8-12.8a7 7 0 0 1 4.6-1.8 9 9 0 0 1 3.8.9Z" fill="#ffffff"/><g stroke="#000" stroke-width="3" stroke-linecap="round" stroke-linejoin="round"><path d="M79 93.7c-6 10-22.2 57.6-15.5 86.4 8.1 34.4 54.6 44.9 102.1 19.7C214.3 174 182.2 95.5 175.3 88"/><path d="M184.3 105.4c2.6-1.1 7.4-1.3 9.3 2 1.8 3.2 2.7 9.3 1.4 15.1-.7 3.3-3 4.3-5 4.3M72.5 107.8c-5.9-3.5-11.4-.2-12.4 12.2-.7 7.9 2.9 11.4 5.4 11"/></g><g transform="translate(116 120)"><path d="M20.8 8c2.7 8 7.6 25.3 5.8 29.4-2.1 5-5.4-2.3-5.4 3.5-1 2.8-3.8 3.2-5.1-1.6-1.3-4.7-5.2 3.5-6.5 1.6-3.6-1.6-.7-7.1 1.2-8.9" stroke="#000" stroke-width="3" stroke-linecap="round" stroke-linejoin="round"/></g><g transform="translate(57 132)"></g><g transform="translate(86 184)"><g stroke="#000" stroke-width="3" stroke-linecap="round" stroke-linejoin="round"><path d="M16 6.6c5.3 2.5 13.5 8 22.7 7.7 11-.3 14.6-6.1 16-9.3"/><path d="M34.3 6.3c-3-1.9-8.6 1.8-10 4.2 1.6 5.5 7.4 9.2 14 9.2 7.3 0 11.3-6.3 12-8.5h0c-.7-1.2-1.8-3.3-4.8-4.9-3.7-2-6.1 6-6.8 6-.7 0-.6-3.6-4.4-6Z"/></g></g><g transform="translate(-2 -17)"><g stroke="#000000" stroke-width="3" stroke-linecap="round" stroke-linejoin="round"><path d="M127.5 87c-10.5-1.6-24.5-2.6-41 20M132.5 85c17.5-14 44.5 4.4 48 23.4M132 90.7c4 18.2 23 31.2 48 24.2"/><path d="M132 86.2c10 12.5 28 20 45 24M79.5 121.4c10 9.5 45-4 48.3-27.5M81.5 109c1-22.6 39-36.8 48.5-24.3M128 90.4c-28 6.2-21 18-42.5 23"/><path d="M121.3 97c-7 9.5-13.4 16-34.4 21.7M79.5 113C77 97.3 66 88.7 55.3 92 35 98.3 36 129.3 18 128.3"/><path d="M78.5 115c0-6.6-4.7-16.8-18.7-19.3s-35 2-33 44 2 43.4 1.5 55"/><path d="M68.5 109c-10-5-26.8.8-34 28.4-9 34.5-23.2 67.3-13.7 94.8"/><path d="M78.3 118.7c-6.5-9.5-23.8-8-29 4-6.5 15-17 81-21 90"/><path d="M78.8 119.2c-2.5-3-13.5-3-20.5 12s-15.5 54.5-3.5 92"/><path d="M78.8 120.7c-6-8.5-19.9-3.3-25.5 8.7-7 15-9.5 78-13.5 94M183 107c0-14.5 22.4-23.4 30-11.8 9.5 14.5 14 97.3 5 129.8"/><path d="M185 109c6.5-8.6 24.7-22 43.5-13.3 23.5 11 30 46 17.5 79s-17 46.2-3.5 54.2"/><path d="M181.5 110.7c7-15.5 40.6-19.3 51 1.5 13 26 5.5 42-5 98"/><path d="M184 110.4c16-9.5 46.9-12.5 60.5 16.3 13.6 28.8 5.7 70.7 0 88"/><path d="M183.5 114c9-9 37.8-11.7 47 10.7 11.5 28-2 68.5 5 92.5"/><path d="M183 112.4c1.5-.5 37.5-5.7 45 31.3s-3.5 65.5 2.5 81.5"/><path d="M183 113.4c5.5-8.5 22.6-2.3 29 21.3 6.4 23.6 10 67.2 11 86M134.5 85.7c5.8-1.2 26 0 39 18.7M7.3 232.7c-2.5-3.2-6-14.6 0-35 7.5-25.5 18.5-62.5 21-70s17-24.5 31-24.5 17.7 7.2 19.2 14.2"/><path d="M73.7 118.6c0 2.8 2.7 5.5 6.3-.4 3.9-6.2 1.9-11-.3-10.3M186.5 114.6c0 3.1-2.8 5.7-6-1.3-3.3-7.6-1.2-12.6.9-11.5"/></g></g><g transform="translate(71 151)"></g><g transform="translate(71 89)"><path fill-rule="evenodd" clip-rule="evenodd" d="M36.8 29v-.2c0-.8-.7-1.5-1.5-1.4-1.4 0-3.5.5-5.3 1.4a7.8 7.8 0 0 0-4.3 5.4c-.5 3 0 5.3 1 6.9 1 1.5 2.4 2.3 3.1 2.7a13.6 13.6 0 0 0 5.4.6c1.2 0 2.5-.4 3.6-1.1 1.1-.8 2-2 2.3-3.6a12 12 0 0 0-.7-7 7 7 0 0 0-3-3.6l-.6-.1Zm-7.3 4a4.1 4.1 0 0 0-.9 2.2l.4-1 .5-1.1Zm1.3 4.4-.1.3.2.2v-.5Zm3-2.1v.5-.5Zm-1.8-3c.7-.2 1.6.1 2 .9l-.8.3.7-.3a4.6 4.6 0 0 1 .1.2 6.9 6.9 0 0 1 .4 1.5c0 .3 0 .8-.2 1.2-.5 1-1.4 1.3-2 1.3-.8 0-2-.2-2.4-1.4a2 2 0 0 1 0-1.5 2 2 0 0 1 1-1l.3-.2c.1-.4.4-.7.9-1Zm-.6 2.8ZM86 27V27c0-.9-.7-1.5-1.6-1.4-1.3 0-3.4.4-5.2 1.4a7.8 7.8 0 0 0-4.3 5.4c-.6 3 0 5.2 1 6.8 1 1.6 2.4 2.4 3.1 2.8a13.6 13.6 0 0 0 5.4.6c1.2-.1 2.5-.4 3.6-1.2 1.1-.7 2-2 2.3-3.6a12 12 0 0 0-.7-6.9 7 7 0 0 0-3-3.6l-.6-.1Zm-7.4 4.1a4.1 4.1 0 0 0-.8 2.1l.4-1c0-.4.2-.7.4-1Zm1.4 4.4-.2.3.3.2-.1-.5Zm3-2.1-.1.2v.2l.1-.4Zm.9 4a1.5 1.5 0 1 1 3 0 1.5 1.5 0 0 1-3 0Zm-2.7-7c.7-.3 1.6 0 2 .8l-.8.4.7-.4a4.6 4.6 0 0 1 .1.3 6.8 6.8 0 0 1 .4 1.5c0 .2 0 .7-.3 1.2-.4 1-1.3 1.3-2 1.3s-1.8-.3-2.3-1.4a2 2 0 0 1 0-1.5 2 2 0 0 1 1-1l.3-.2c.1-.4.4-.8.9-1Zm-.6 2.8Z" fill="#000"/><path d="M27.5 21.8c1-1.3 3.8-3.4 6-2M78 18c1-1.3 4.2-1.4 4.7 0" stroke="#000" stroke-width="3" stroke-linecap="round" stroke-linejoin="round"/></g></g></svg>